<svg width="69" height="32" viewBox="0 0 69 32" fill="none" xmlns="http://www.w3.org/2000/svg">
<path d="M22.5 5C22.5 7.20914 20.7091 9 18.5 9C16.2909 9 14.5 7.20914 14.5 5C14.5 2.79086 16.2909 1 18.5 1C20.7091 1 22.5 2.79086 22.5 5Z" fill="black"/>
<path d="M53.5 5C53.5 7.20914 51.7091 9 49.5 9C47.2909 9 45.5 7.20914 45.5 5C45.5 2.79086 47.2909 1 49.5 1C51.7091 1 53.5 2.79086 53.5 5Z" fill="black"/>
<path d="M35.2559 22.1271C34.8572 22.5876 34.1428 22.5876 33.7441 22.1271L30.7368 18.6547C30.1759 18.007 30.636 17 31.4928 17H37.5073C38.364 17 38.8241 18.007 38.2632 18.6547L35.2559 22.1271Z" fill="black"/>
<path d="M51.5 19H67.5M51.5 31H67.5M1.5 19H17.5M1.5 31H17.5M34.4886 22C34.8912 29.5918 24.5 29.7179 24.5 23.8523M34.5125 22C34.0697 29.5918 45.5 29.7179 45.5 23.8523M22.5 5C22.5 7.20914 20.7091 9 18.5 9C16.2909 9 14.5 7.20914 14.5 5C14.5 2.79086 16.2909 1 18.5 1C20.7091 1 22.5 2.79086 22.5 5ZM53.5 5C53.5 7.20914 51.7091 9 49.5 9C47.2909 9 45.5 7.20914 45.5 5C45.5 2.79086 47.2909 1 49.5 1C51.7091 1 53.5 2.79086 53.5 5ZM37.5073 17H31.4928C30.636 17 30.1759 18.007 30.7368 18.6547L33.7441 22.1271C34.1428 22.5876 34.8572 22.5876 35.2559 22.1271L38.2632 18.6547C38.8241 18.007 38.364 17 37.5073 17Z" stroke="black" stroke-width="2" stroke-linecap="round"/>
</svg>
