<svg width="24" height="25" viewBox="0 0 24 25" fill="none" xmlns="http://www.w3.org/2000/svg">
<g id="share-01">
<path id="Vector" d="M20.3927 8.53168L18.6457 7.01461C17.3871 5.92153 16.8937 5.33352 16.2121 5.54139C15.3622 5.80059 15.642 7.43609 15.642 7.98824C14.3206 7.98824 12.9468 7.88661 11.6443 8.09836C7.34453 8.79742 6 11.8566 6 15.1525C7.21697 14.4065 8.43274 13.5746 9.8954 13.2289C11.7212 12.7973 13.7603 13.0032 15.642 13.0032C15.642 13.5554 15.3622 15.1909 16.2121 15.4501C16.9844 15.6856 17.3871 15.0699 18.6457 13.9769L20.3927 12.4598C21.4642 11.5293 22 11.064 22 10.4957C22 9.9275 21.4642 9.46223 20.3927 8.53168Z" stroke="#FFE0CC" stroke-width="1.5" stroke-linecap="round" stroke-linejoin="round"/>
<path id="Vector_2" d="M10.5676 3.5C6.70735 3.50694 4.68594 3.60152 3.39411 4.89073C2 6.28202 2 8.52125 2 12.9997C2 17.4782 2 19.7174 3.3941 21.1087C4.78821 22.5 7.03198 22.5 11.5195 22.5C16.0071 22.5 18.2509 22.5 19.645 21.1087C20.6156 20.14 20.9104 18.7603 21 16.5" stroke="#FFE0CC" stroke-width="1.5" stroke-linecap="round" stroke-linejoin="round"/>
</g>
</svg>
